<svg xmlns="http://www.w3.org/2000/svg" viewBox="0 0 128 128" width="128" height="128" role="img" aria-label="Xerial">
  <defs>
    <linearGradient id="xerialTile" x1="0" y1="0" x2="0" y2="1">
      <stop offset="0" stop-color="#2a8553"></stop>
      <stop offset="1" stop-color="#1c6740"></stop>
    </linearGradient>
  </defs>
  
  <rect x="8" y="8" width="112" height="112" rx="26" fill="url(#xerialTile)"></rect>
  
  <path d="M8 34 A26 26 0 0 1 34 8 L94 8 A26 26 0 0 1 120 34 L120 39 L8 39 Z" fill="#18603a"></path>
  
  <g fill="#ffffff" fill-opacity="0.24">
    <rect x="20" y="51" width="16" height="16" rx="2.5"></rect>
    <rect x="44" y="51" width="16" height="16" rx="2.5"></rect>
    <rect x="20" y="75" width="16" height="16" rx="2.5"></rect>
    <rect x="68" y="99" width="16" height="16" rx="2.5"></rect>
    <rect x="92" y="75" width="16" height="16" rx="2.5"></rect>
    <rect x="92" y="99" width="16" height="16" rx="2.5"></rect>
  </g>
  
  <g fill="#ffffff">
    <rect x="68" y="51" width="16" height="16" rx="2.5"></rect>
    <rect x="92" y="51" width="16" height="16" rx="2.5"></rect>
    <rect x="44" y="75" width="16" height="16" rx="2.5"></rect>
    <rect x="68" y="75" width="16" height="16" rx="2.5"></rect>
    <rect x="20" y="99" width="16" height="16" rx="2.5"></rect>
    <rect x="44" y="99" width="16" height="16" rx="2.5"></rect>
  </g>
</svg>